<?xml version="1.0" standalone="no"?>
<!DOCTYPE svg PUBLIC "-//W3C//DTD SVG 20010904//EN"
 "http://www.w3.org/TR/2001/REC-SVG-20010904/DTD/svg10.dtd">
<svg version="1.0" xmlns="http://www.w3.org/2000/svg"
 width="128.000000pt" height="40.000000pt" viewBox="0 0 128.000000 40.000000"
 preserveAspectRatio="xMidYMid meet">
<metadata>
Created by potrace 1.10, written by Peter Selinger 2001-2011
</metadata>
<g transform="translate(0.000000,40.000000) scale(0.100000,-0.100000)"
fill="#ffffff" stroke="none">
<path d="M58 347 c-61 -56 -73 -91 -47 -139 8 -14 8 -23 0 -31 -6 -6 -11 -28
-11 -49 0 -29 7 -45 26 -63 15 -14 32 -25 39 -25 7 0 20 -9 30 -20 23 -26 59
-26 85 0 11 11 27 20 35 20 8 0 15 3 15 8 0 4 9 13 21 20 19 12 20 11 15 -6
-9 -27 36 -62 80 -62 19 0 34 4 34 9 0 6 16 22 36 37 34 27 36 27 64 11 33
-20 71 -22 88 -5 9 9 17 10 30 2 22 -14 163 -15 180 -2 9 8 19 8 35 1 33 -16
106 -14 132 3 20 13 24 13 35 -1 17 -20 69 -19 92 2 17 15 20 15 52 -2 21 -12
42 -16 59 -11 33 8 69 46 62 64 -3 8 0 21 6 29 15 18 -15 61 -55 81 -24 12
-32 11 -66 -6 -32 -15 -42 -17 -50 -7 -18 22 -58 26 -90 10 -29 -15 -30 -15
-30 8 0 13 -8 31 -19 41 -23 21 -50 12 -116 -38 l-46 -36 -29 21 c-17 13 -33
18 -41 13 -8 -4 -26 -7 -40 -6 -15 1 -39 -2 -53 -7 -18 -7 -33 -6 -54 5 -31
15 -72 7 -87 -16 -4 -7 -17 -4 -38 9 -28 16 -40 18 -96 10 -69 -10 -93 1 -65
28 18 18 18 37 -1 74 -10 19 -26 32 -45 35 -16 4 -37 15 -46 25 -30 33 -64 24
-126 -34z m102 13 c0 -17 7 -20 40 -20 34 0 42 -4 55 -30 30 -58 7 -75 -53
-35 -23 15 -46 23 -55 19 -31 -11 -18 -32 30 -48 64 -22 93 -51 93 -93 0 -41
-36 -81 -80 -89 -21 -5 -30 -12 -30 -25 0 -14 -7 -19 -25 -19 -18 0 -25 5 -25
20 0 11 -7 20 -15 20 -32 0 -66 24 -74 54 -16 60 6 73 46 26 19 -23 33 -30 60
-30 49 0 41 29 -14 47 -58 20 -97 67 -89 107 6 33 47 76 72 76 8 0 14 9 14 20
0 15 7 20 25 20 18 0 25 -5 25 -20z m778 -179 c-3 -39 -1 -74 5 -80 19 -19 -5
-30 -67 -30 -57 0 -66 3 -80 24 -21 32 -20 47 5 80 18 22 28 26 50 21 31 -6
37 2 17 22 -9 9 -6 14 13 21 57 23 62 17 57 -58z m-503 2 c20 -19 19 -72 -2
-95 -9 -10 -29 -18 -45 -18 -28 0 -38 -15 -15 -23 9 -3 9 -7 0 -17 -7 -8 -24
-10 -47 -6 -36 7 -59 27 -38 34 15 5 16 102 2 102 -5 0 -10 4 -10 8 0 29 130
41 155 15z m131 9 c16 -10 34 -48 27 -56 -3 -3 -22 -6 -40 -6 -24 0 -33 -4
-30 -12 2 -8 17 -12 36 -10 33 2 39 -6 19 -26 -19 -19 -76 -14 -99 9 -49 49
29 140 87 101z m106 -3 c3 -8 10 -8 26 2 32 20 56 1 60 -47 2 -21 8 -43 13
-48 18 -19 8 -26 -36 -26 -45 0 -54 7 -34 27 15 15 7 58 -11 58 -11 0 -15 -11
-13 -42 l2 -43 -40 0 c-37 0 -51 12 -29 25 6 3 10 19 10 36 0 16 -4 29 -10 29
-19 0 -10 21 13 30 31 12 45 12 49 -1z m398 -9 c33 -33 26 -50 -20 -50 -22 0
-40 -4 -40 -9 0 -13 34 -23 54 -15 10 4 16 1 16 -9 0 -21 -49 -36 -80 -25 -31
11 -40 25 -40 65 0 56 69 84 110 43z m142 3 c10 -9 18 -24 18 -35 0 -14 -8
-18 -40 -18 -22 0 -40 -4 -40 -9 0 -13 23 -20 53 -14 38 7 34 -15 -5 -31 -50
-21 -98 6 -98 56 0 57 70 89 112 51z"/>
<path d="M847 149 c-7 -27 1 -49 19 -49 9 0 14 12 14 35 0 39 -24 49 -33 14z"/>
<path d="M360 129 c0 -38 24 -35 28 4 2 19 -1 27 -12 27 -11 0 -16 -10 -16
-31z"/>
<path d="M520 160 c0 -5 4 -10 9 -10 6 0 13 5 16 10 3 6 -1 10 -9 10 -9 0 -16
-4 -16 -10z"/>
<path d="M1010 160 c0 -5 7 -10 15 -10 8 0 15 5 15 10 0 6 -7 10 -15 10 -8 0
-15 -4 -15 -10z"/>
<path d="M1150 160 c0 -5 7 -10 15 -10 8 0 15 5 15 10 0 6 -7 10 -15 10 -8 0
-15 -4 -15 -10z"/>
</g>
</svg>
